<svg width="45" height="45" viewBox="0 0 45 45" fill="none" xmlns="http://www.w3.org/2000/svg">
<g clip-path="url(#clip0_407_1042)">
<rect x="35.625" y="9.375" width="26.25" height="26.25" transform="rotate(90 35.625 9.375)" fill="url(#paint0_linear_407_1042)"/>
<path d="M22.5 45C16.5326 45 10.8097 42.6295 6.5901 38.4099C2.37053 34.1903 0 28.4674 0 22.5C0 16.5326 2.37053 10.8097 6.5901 6.5901C10.8097 2.37053 16.5326 0 22.5 0C28.4674 0 34.1903 2.37053 38.4099 6.5901C42.6295 10.8097 45 16.5326 45 22.5C45 28.4674 42.6295 34.1903 38.4099 38.4099C34.1903 42.6295 28.4674 45 22.5 45ZM30.6759 19.0969C30.8257 18.8866 30.9146 18.6392 30.933 18.3817C30.9515 18.1242 30.8987 17.8667 30.7805 17.6372C30.6623 17.4077 30.4832 17.2152 30.2628 17.0808C30.0425 16.9464 29.7894 16.8752 29.5312 16.875L15.4687 16.875C15.2106 16.8752 14.9575 16.9464 14.7372 17.0808C14.5168 17.2152 14.3377 17.4077 14.2195 17.6372C14.1013 17.8667 14.0485 18.1242 14.067 18.3817C14.0854 18.6392 14.1744 18.8866 14.3241 19.0969L21.3553 28.9406C21.4854 29.1229 21.6571 29.2715 21.8562 29.374C22.0553 29.4765 22.2761 29.53 22.5 29.53C22.7239 29.53 22.9447 29.4765 23.1438 29.374C23.3429 29.2715 23.5146 29.1229 23.6447 28.9406L30.6759 19.0969Z" fill="#34D399"/>
</g>
<defs>
<linearGradient id="paint0_linear_407_1042" x1="35.625" y1="22.5" x2="61.875" y2="22.5" gradientUnits="userSpaceOnUse">
<stop stop-color="#F8F8F8"/>
</linearGradient>
<clipPath id="clip0_407_1042">
<rect width="45" height="45" fill="white" transform="matrix(0 1 -1 0 45 0)"/>
</clipPath>
</defs>
</svg>
