<svg width="22" height="21" viewBox="0 0 22 21" fill="none" xmlns="http://www.w3.org/2000/svg">
<path d="M10.9995 0.416992C16.5683 0.416992 21.0833 4.93128 21.0835 10.5C21.0835 16.0689 16.5684 20.584 10.9995 20.584C5.43079 20.5838 0.916504 16.0688 0.916504 10.5C0.916689 4.93139 5.4309 0.417178 10.9995 0.416992ZM10.8647 14.5996C8.76303 14.5996 6.92502 15.7351 5.93311 17.4277C7.35319 18.4682 9.1042 19.0839 10.9995 19.084C12.8098 19.084 14.4881 18.5212 15.8726 17.5645C14.901 15.7967 13.0223 14.5998 10.8647 14.5996ZM10.9995 1.91699C6.25933 1.91718 2.41669 5.75982 2.4165 10.5C2.4165 12.7973 3.32077 14.8824 4.79053 16.4229C6.07217 14.4249 8.31304 13.0996 10.8647 13.0996C13.4877 13.0998 15.7808 14.5008 17.0425 16.5928C18.6104 15.0376 19.5835 12.8829 19.5835 10.5C19.5833 5.7597 15.7399 1.91699 10.9995 1.91699ZM10.9995 5.45898C12.8249 5.45898 14.305 6.93834 14.3052 8.76367C14.3052 10.5891 12.825 12.0693 10.9995 12.0693C9.17419 12.0692 7.69482 10.589 7.69482 8.76367C7.69495 6.93843 9.17427 5.45913 10.9995 5.45898ZM10.9995 6.95898C10.0027 6.95913 9.19495 7.76685 9.19482 8.76367C9.19482 9.7606 10.0026 10.5692 10.9995 10.5693C11.9965 10.5693 12.8052 9.76069 12.8052 8.76367C12.805 7.76676 11.9965 6.95898 10.9995 6.95898Z" fill="#090707" fill-opacity="0.47"/>
</svg>
