<svg width="20" height="20" viewBox="0 0 20 20" fill="none" xmlns="http://www.w3.org/2000/svg">
<path d="M10 0.75C10.7601 0.75 11.4889 0.980511 12.4375 1.52441C13.1637 1.94081 13.9826 2.51833 15.0127 3.27734L16.1172 4.09766C16.972 4.73433 17.5774 5.18616 18.0283 5.58203C18.4709 5.97057 18.7226 6.26996 18.8887 6.58203C19.2301 7.2238 19.25 7.9581 19.25 9.95117V11.4424L19.2471 12.8652C19.2384 14.1839 19.205 15.2013 19.0762 16.0215C18.9099 17.0797 18.5988 17.7053 18.0479 18.1768C17.48 18.6627 16.6979 18.9493 15.4004 19.0986C14.0918 19.2492 12.3751 19.25 10 19.25C7.62494 19.25 5.90823 19.2492 4.59961 19.0986C3.30208 18.9493 2.52003 18.6627 1.95215 18.1768C1.40123 17.7053 1.09014 17.0797 0.923828 16.0215C0.752019 14.9279 0.75 13.4841 0.75 11.4424V9.95117L0.758789 8.67383C0.780465 7.59667 0.855288 7.06331 1.11133 6.58203C1.27739 6.26996 1.52915 5.97057 1.97168 5.58203C2.19712 5.3841 2.46083 5.17165 2.77539 4.92969L3.88281 4.09766C5.46195 2.92149 6.5943 2.07957 7.5625 1.52441C8.51114 0.980511 9.23987 0.75 10 0.75Z" fill="#132A2E" stroke="#34D399" stroke-width="1.5"/>
<path d="M12 9V14" stroke="#34D399" stroke-width="1.5" stroke-linecap="round"/>
<path d="M8 9V14" stroke="#34D399" stroke-width="1.5" stroke-linecap="round"/>
</svg>
